<?xml version="1.0" encoding="utf-8"?>
<!-- Generator: Adobe Illustrator 22.0.1, SVG Export Plug-In . SVG Version: 6.00 Build 0)  -->
<svg version="1.1" id="Layer_1" xmlns="http://www.w3.org/2000/svg" xmlns:xlink="http://www.w3.org/1999/xlink" x="0px" y="0px"
	 viewBox="0 0 80 80" style="enable-background:new 0 0 80 80;" xml:space="preserve">
<style type="text/css">
	.st0{fill:none;stroke:#000000;stroke-width:3;stroke-linecap:round;stroke-linejoin:round;stroke-miterlimit:10;}
</style>
<g>
	<line class="st0" x1="46.6" y1="46.6" x2="51.7" y2="51.6"/>
	<line class="st0" x1="18.4" y1="18.4" x2="33.4" y2="33.4"/>
	<path class="st0" d="M58.9,49.2l15.7,15.7c1.4,1.4,1.4,3.8,0,5.2l-4.5,4.5c-1.4,1.4-3.8,1.4-5.2,0L49.2,58.9L58.9,49.2z"/>
	<rect x="6.9" y="7.4" transform="matrix(0.7071 -0.7071 0.7071 0.7071 -5.7598 13.8291)" class="st0" width="13.9" height="13"/>
</g>
<g>
	<g>
		<line class="st0" x1="24.7" y1="42.1" x2="42.1" y2="24.7"/>
		<line class="st0" x1="55.3" y1="37.9" x2="37.9" y2="55.3"/>
	</g>
	<path class="st0" d="M55.3,38c6,1.5,12.7-0.1,17.4-4.8c3.7-3.7,5.4-8.5,5.3-13.4c-5.1,4-12.5,3.8-17.2-0.9
		c-4.6-4.6-5-11.8-1.2-16.8c-4.6,0.1-9.2,1.8-12.7,5.3c-4.7,4.7-6.3,11.4-4.8,17.4"/>
	<path class="st0" d="M38,55.3c1.5,6-0.1,12.7-4.8,17.4c-3.7,3.7-8.5,5.4-13.4,5.3c4-5.1,3.8-12.5-0.9-17.2
		c-4.6-4.6-11.8-5-16.8-1.2c0.1-4.6,1.8-9.2,5.3-12.7c4.7-4.7,11.4-6.3,17.4-4.8"/>
</g>
</svg>
