<?xml version="1.0" encoding="utf-8"?>
<!-- Generator: Adobe Illustrator 22.0.1, SVG Export Plug-In . SVG Version: 6.00 Build 0)  -->
<svg version="1.1" id="Layer_1" xmlns="http://www.w3.org/2000/svg" xmlns:xlink="http://www.w3.org/1999/xlink" x="0px" y="0px"
	 viewBox="0 0 28 28" style="enable-background:new 0 0 28 28;" xml:space="preserve">
<style type="text/css">
	.st0{fill:none;stroke:#000000;stroke-width:2;stroke-linecap:round;stroke-miterlimit:10;}
</style>
<g>
	<path d="M13.3,15C13.4,15.1,13.4,15.1,13.3,15c0.3,0.4,0.7,0.6,1.1,0.6c0.8,0,1.4-0.6,1.4-1.4c0-0.4-0.2-0.8-0.5-1
		c0,0-0.1-0.1-0.1-0.1L9.7,8.9c-0.2-0.1-0.4-0.1-0.6,0C8.9,9,8.9,9.3,9.1,9.5L13.3,15z"/>
	<path class="st0" d="M14,8V3c6.1,0,11,4.9,11,11s-4.9,11-11,11S3,20.1,3,14c0-3,1.2-5.8,3.2-7.8"/>
</g>
</svg>
