<?xml version="1.0" encoding="utf-8"?>
<!-- Generator: Adobe Illustrator 22.0.1, SVG Export Plug-In . SVG Version: 6.00 Build 0)  -->
<svg version="1.1" id="Layer_1" xmlns="http://www.w3.org/2000/svg" xmlns:xlink="http://www.w3.org/1999/xlink" x="0px" y="0px"
	 viewBox="0 0 28 28" style="enable-background:new 0 0 28 28;" xml:space="preserve">
<style type="text/css">
	.st0{fill:none;stroke:#000000;stroke-width:1.5;stroke-linecap:round;stroke-linejoin:round;stroke-miterlimit:10;}
</style>
<path id="XMLID_6_" class="st0" d="M7.9,24.3H3.8c-0.4,0-0.7-0.3-0.7-0.7c0,0,0-6.6,0-11.7"/>
<path id="XMLID_4_" class="st0" d="M21.6,5.1h2.8c0.4,0,0.5,0.3,0.5,0.7c0,0,0,1.9,0,3.3H3.1c0-1.4,0-3.3,0-3.3
	c0-0.4,0.3-0.7,0.7-0.7h2.6"/>
<path id="XMLID_3_" class="st0" d="M11.3,5.1c3.4,0,2.5,0,5.5,0"/>
<line id="XMLID_2_" class="st0" x1="8.9" y1="3.8" x2="8.9" y2="6.5"/>
<line id="XMLID_1_" class="st0" x1="19.3" y1="3.8" x2="19.3" y2="6.5"/>
<circle class="st0" cx="19" cy="19.2" r="6.6"/>
<line class="st0" x1="19" y1="16.6" x2="19" y2="19.2"/>
<line class="st0" x1="19" y1="19.2" x2="15.5" y2="19.2"/>
</svg>
