<?xml version="1.0" encoding="utf-8"?>
<!-- Generator: Adobe Illustrator 22.0.1, SVG Export Plug-In . SVG Version: 6.00 Build 0)  -->
<svg version="1.1" id="Layer_1" xmlns="http://www.w3.org/2000/svg" xmlns:xlink="http://www.w3.org/1999/xlink" x="0px" y="0px"
	 viewBox="0 0 28 28" style="enable-background:new 0 0 28 28;" xml:space="preserve">
<style type="text/css">
	.st0{fill:none;stroke:#000000;stroke-width:1.5;stroke-linecap:round;stroke-miterlimit:10;}
</style>
<path id="XMLID_1_" class="st0" d="M14.5,14.6l7.9,1.5v1.7v3.4c0,2.7-2.2,4.9-4.9,4.9H14c-2.7,0-4.4-2.2-4.4-4.9l-1-2.3l-1.1-2.9
	c-0.5-0.7-0.3-1.7,0.5-2.2l0,0c0.7-0.5,1.7-0.3,2.2,0.5l1.8,2.2v-0.3V7.7c0-0.7,0.6-1.2,1.2-1.2h0c0.7,0,1.2,0.6,1.2,1.2v6.7"/>
<path id="XMLID_2_" class="st0" d="M8.4,10.9c-0.8-1-1.2-2.3-1.2-3.6c0-3.3,2.7-6,6-6s6,2.7,6,6c0,1.3-0.4,2.6-1.1,3.5"/>
</svg>
