<?xml version="1.0" encoding="UTF-8" standalone="no"?>
<svg
   xmlns:dc="http://purl.org/dc/elements/1.1/"
   xmlns:cc="http://creativecommons.org/ns#"
   xmlns:rdf="http://www.w3.org/1999/02/22-rdf-syntax-ns#"
   xmlns:svg="http://www.w3.org/2000/svg"
   xmlns="http://www.w3.org/2000/svg"
   id="svg8"
   version="1.1"
   viewBox="0 0 140.27142 140.27144"
   height="140.27144mm"
   width="140.27142mm">
  <defs
     id="defs2" />
  <metadata
     id="metadata5">
    <rdf:RDF>
      <cc:Work
         rdf:about="">
        <dc:format>image/svg+xml</dc:format>
        <dc:type
           rdf:resource="http://purl.org/dc/dcmitype/StillImage" />
        <dc:title></dc:title>
      </cc:Work>
    </rdf:RDF>
  </metadata>
  <g
     transform="translate(-29.650004,-63.578561)"
     id="layer1">
    <g
       transform="translate(0,-69.547619)"
       style="stroke:#ffffff;stroke-opacity:1"
       id="g4620">
      <g
         style="stroke:#ffffff;stroke-opacity:1"
         id="g3763"
         transform="matrix(4.5434102,0,0,4.5434102,45.264797,156.21334)">
        <path
           style="fill:none;stroke:#ffffff;stroke-width:1.5;stroke-linecap:round;stroke-linejoin:round;stroke-miterlimit:10;stroke-opacity:1"
           d="M 16.8,6.0999999 A 4.8000002,4.8000002 0 0 1 12,10.9 4.8000002,4.8000002 0 0 1 7.1999998,6.0999999 4.8000002,4.8000002 0 0 1 12,1.2999997 4.8000002,4.8000002 0 0 1 16.8,6.0999999 Z"
           id="XMLID_1_" />
        <path
           d="m 3.5,19.4 c 0,-4.7 3.8,-8.5 8.5,-8.5 4.7,0 8.5,3.8 8.5,8.5"
           class="st0"
           id="XMLID_3_"
           style="fill:none;stroke:#ffffff;stroke-width:1.5;stroke-linecap:round;stroke-linejoin:round;stroke-miterlimit:10;stroke-opacity:1" />
      </g>
      <g
         id="g3779"
         transform="matrix(1.8271307,0,0,1.8271307,290.3946,-152.9307)"
         style="fill:none;stroke:#ffffff;stroke-width:4.19999981;stroke-miterlimit:4;stroke-dasharray:none;stroke-opacity:1">
        <g
           id="g3774"
           style="fill:none;stroke:#ffffff;stroke-width:4.19999981;stroke-miterlimit:4;stroke-dasharray:none;stroke-opacity:1">
          <g
             id="g3770"
             style="fill:none;stroke:#ffffff;stroke-width:4.19999981;stroke-miterlimit:4;stroke-dasharray:none;stroke-opacity:1">
            <path
               style="fill:none;stroke:#ffffff;stroke-width:4.19999981;stroke-miterlimit:4;stroke-dasharray:none;stroke-opacity:1"
               d="m -68.035713,194.94643 a 36.285713,36.285713 0 0 1 -36.285717,36.28571 36.285713,36.285713 0 0 1 -36.28571,-36.28571 36.285713,36.285713 0 0 1 36.28571,-36.28572 36.285713,36.285713 0 0 1 36.285717,36.28572 z"
               id="path3767" />
          </g>
        </g>
      </g>
    </g>
  </g>
  <style
     type="text/css"
     id="style3749">
	.st0{fill:none;stroke:#000000;stroke-width:1.5;stroke-linecap:round;stroke-linejoin:round;stroke-miterlimit:10;}
</style>
</svg>
