<?xml version="1.0" encoding="utf-8"?>
<!-- Generator: Adobe Illustrator 22.0.1, SVG Export Plug-In . SVG Version: 6.00 Build 0)  -->
<svg version="1.1" id="Layer_1" xmlns="http://www.w3.org/2000/svg" xmlns:xlink="http://www.w3.org/1999/xlink" x="0px" y="0px"
	 viewBox="0 0 80 80" style="enable-background:new 0 0 80 80;" xml:space="preserve">
<style type="text/css">
	.st0{fill:none;stroke:#000000;stroke-width:3;stroke-linecap:round;stroke-miterlimit:10;}
	.st1{fill:none;stroke:#000000;stroke-width:3;stroke-miterlimit:10;}
</style>
<path id="XMLID_3_" class="st0" d="M62.9,61v7.8c0,3.5-2.8,6.3-6.3,6.3H12.4c-3.5,0-6.3-2.8-6.3-6.3V24.6c0-3.5,2.8-6.3,6.3-6.3
	h44.2c3.5,0,6.3,2.8,6.3,6.3v16.7"/>
<path id="XMLID_8_" class="st0" d="M17.3,13c0-3.5,2.8-6.3,6.3-6.3h44.2c3.5,0,6.3,2.8,6.3,6.3v16.7v19.8v7.8c0,3.5-2.8,6.3-6.3,6.3
	"/>
<line id="XMLID_2_" class="st1" x1="6.1" y1="34" x2="62.9" y2="34"/>
<polyline id="XMLID_4_" class="st0" points="63.8,48.3 46.1,65.9 38.2,57.6 "/>
<circle id="XMLID_1_" cx="14.8" cy="26.5" r="2.4"/>
<circle id="XMLID_6_" cx="21.4" cy="26.5" r="2.4"/>
<circle id="XMLID_7_" cx="28.1" cy="26.5" r="2.4"/>
</svg>
